<?xml version="1.0" standalone="no"?>
<!DOCTYPE svg PUBLIC "-//W3C//DTD SVG 20010904//EN"
 "http://www.w3.org/TR/2001/REC-SVG-20010904/DTD/svg10.dtd">
<svg version="1.0" xmlns="http://www.w3.org/2000/svg"
 width="198.000000pt" height="62.000000pt" viewBox="0 0 198.000000 62.000000"
 preserveAspectRatio="xMidYMid meet">

<g transform="translate(0.000000,62.000000) scale(0.100000,-0.100000)"
fill="#000000" stroke="none">
<path d="M1293 589 l-43 -20 0 -99 0 -100 -29 0 c-61 0 -141 -83 -141 -147 0
-42 21 -92 49 -117 18 -16 40 -20 126 -23 86 -3 105 -1 105 10 0 12 7 12 44
-1 38 -14 54 -15 102 -4 104 21 133 56 88 103 -23 24 -29 27 -37 14 -9 -17
-66 -49 -73 -42 -3 3 19 33 48 68 88 106 84 96 47 114 -48 25 -137 17 -182
-18 l-34 -26 -7 46 c-3 25 -6 95 -6 154 0 60 -3 109 -7 108 -5 0 -27 -9 -50
-20z m-52 -277 c-6 -11 -6 -24 0 -33 15 -23 11 -69 -6 -69 -20 0 -55 36 -55
55 0 9 11 27 25 40 29 30 50 34 36 7z m253 -34 c-4 -7 -21 -30 -38 -51 -24
-30 -32 -35 -38 -23 -12 21 0 64 21 76 24 14 64 13 55 -2z"/>
<path d="M1580 390 c0 -4 27 -42 60 -85 33 -43 60 -82 60 -87 0 -8 -24 -42
-103 -145 -7 -10 4 -13 51 -13 59 0 61 1 90 40 l30 41 32 -41 c31 -39 34 -40
91 -40 l60 0 -61 80 -61 80 66 82 c35 46 65 86 65 89 0 3 -28 3 -62 1 -43 -3
-67 -10 -74 -21 -7 -9 -21 -27 -33 -41 l-21 -25 -37 42 c-35 38 -43 42 -95 45
-32 3 -58 1 -58 -2z"/>
</g>
</svg>
