<svg width="272" height="90" viewBox="0 0 272 90" fill="none" xmlns="http://www.w3.org/2000/svg">
<path d="M48.1827 89.25C44.1408 89.25 40.6339 88.7718 37.6619 87.8154C34.7494 86.8589 32.461 85.1254 30.7967 82.6147C29.1918 80.1041 28.3894 76.5175 28.3894 71.8549V61.8123H42.0307V72.4825C42.0307 74.2161 42.5062 75.5312 43.4573 76.4278C44.4677 77.3842 45.8348 77.8625 47.5586 77.8625H57.2769V89.25H48.1827ZM35.4329 71.4065C29.5484 71.4065 24.4069 70.3903 20.0084 68.3579C15.6693 66.2657 12.0732 63.5459 9.22013 60.1983C6.36703 56.791 4.22721 53.1147 2.80066 49.1695C1.43355 45.2242 0.75 41.4283 0.75 37.7819V35.8093C0.75 31.7444 1.46327 27.7394 2.88982 23.7941C4.37581 19.789 6.57507 16.1725 9.4876 12.9445C12.4001 9.71657 16.0259 7.14615 20.365 5.23328C24.7041 3.26064 29.7267 2.27432 35.4329 2.27432C41.1391 2.27432 46.1618 3.26064 50.5008 5.23328C54.8399 7.14615 58.4657 9.71657 61.3783 12.9445C64.2908 16.1725 66.4901 19.789 67.9761 23.7941C69.462 27.7394 70.205 31.7444 70.205 35.8093V37.7819C70.205 41.4283 69.4918 45.2242 68.0652 49.1695C66.6387 53.1147 64.4988 56.791 61.6457 60.1983C58.7926 63.5459 55.1668 66.2657 50.7683 68.3579C46.4292 70.3903 41.3174 71.4065 35.4329 71.4065ZM35.4329 57.6877C38.5238 57.6877 41.2877 57.1497 43.7247 56.0737C46.2212 54.9977 48.3313 53.5033 50.055 51.5904C51.8382 49.6776 53.1756 47.4658 54.0672 44.9552C54.9588 42.4445 55.4046 39.7546 55.4046 36.8853C55.4046 33.8366 54.9291 31.057 53.9781 28.5464C53.0865 25.9759 51.7491 23.7642 49.9659 21.9111C48.2421 19.9982 46.1618 18.5337 43.7247 17.5175C41.2877 16.5013 38.5238 15.9932 35.4329 15.9932C32.3421 15.9932 29.5781 16.5013 27.1411 17.5175C24.7041 18.5337 22.594 19.9982 20.8108 21.9111C19.0871 23.7642 17.7794 25.9759 16.8878 28.5464C15.9962 31.057 15.5504 33.8366 15.5504 36.8853C15.5504 39.7546 15.9962 42.4445 16.8878 44.9552C17.7794 47.4658 19.0871 49.6776 20.8108 51.5904C22.594 53.5033 24.7041 54.9977 27.1411 56.0737C29.5781 57.1497 32.3421 57.6877 35.4329 57.6877Z" fill="#FC7048"/>
<path d="M96.9758 71.2272C91.329 71.2272 86.9899 69.404 83.9585 65.7576C80.9271 62.0514 79.4114 56.4921 79.4114 49.0798V20.5661H93.6769V49.7971C93.6769 52.4273 94.4199 54.5195 95.9059 56.0737C97.3918 57.6279 99.3831 58.405 101.88 58.405C104.435 58.405 106.516 57.598 108.121 55.984C109.726 54.3701 110.528 52.1882 110.528 49.4385V20.5661H124.793V69.7029H113.47V48.9901H114.451C114.451 53.9516 113.797 58.1061 112.489 61.4537C111.241 64.7414 109.369 67.1923 106.872 68.8062C104.376 70.4202 101.285 71.2272 97.5999 71.2272H96.9758Z" fill="#FC7048"/>
<path d="M140.265 69.7029V20.5661H154.531V69.7029H140.265ZM133.757 31.1467V20.5661H154.531V31.1467H133.757ZM145.793 15.7242C143.118 15.7242 141.127 15.0367 139.82 13.6619C138.571 12.2272 137.947 10.4339 137.947 8.28191C137.947 6.07016 138.571 4.27685 139.82 2.90197C141.127 1.46732 143.118 0.75 145.793 0.75C148.468 0.75 150.43 1.46732 151.678 2.90197C152.985 4.27685 153.639 6.07016 153.639 8.28191C153.639 10.4339 152.985 12.2272 151.678 13.6619C150.43 15.0367 148.468 15.7242 145.793 15.7242Z" fill="#FC7048"/>
<path d="M187.875 71.3169C184.427 71.3169 181.277 70.6892 178.424 69.4339C175.63 68.1786 173.193 66.445 171.113 64.2333C169.033 61.9618 167.428 59.3017 166.298 56.253C165.229 53.2044 164.694 49.9167 164.694 46.3898V44.3275C164.694 40.8007 165.199 37.5129 166.209 34.4643C167.279 31.4157 168.795 28.7556 170.756 26.484C172.777 24.1527 175.185 22.3594 177.978 21.1041C180.772 19.789 183.893 19.1315 187.34 19.1315C191.263 19.1315 194.651 19.9982 197.504 21.7318C200.357 23.4055 202.586 25.9162 204.191 29.2637C205.796 32.5514 206.688 36.6163 206.866 41.4582L203.121 37.9613V4.24696H217.476V69.7029H206.153V49.3488H208.114C207.936 54.0114 206.955 57.9866 205.172 61.2743C203.448 64.5621 201.1 67.0727 198.128 68.8062C195.156 70.48 191.739 71.3169 187.875 71.3169ZM191.441 59.3017C193.641 59.3017 195.632 58.8235 197.415 57.867C199.258 56.8508 200.714 55.3863 201.784 53.4734C202.913 51.5605 203.478 49.2591 203.478 46.5692V43.2515C203.478 40.6213 202.913 38.4096 201.784 36.6163C200.654 34.823 199.168 33.4481 197.326 32.4916C195.483 31.5352 193.492 31.057 191.352 31.057C188.975 31.057 186.835 31.6847 184.933 32.94C183.09 34.1355 181.634 35.8093 180.564 37.9613C179.494 40.0534 178.959 42.5043 178.959 45.3138C178.959 48.1831 179.494 50.6639 180.564 52.7561C181.634 54.8483 183.12 56.4623 185.022 57.598C186.924 58.7338 189.064 59.3017 191.441 59.3017Z" fill="#FC7048"/>
<path d="M259.927 69.7029V55.1771H257.519V39.3959C257.519 36.8853 256.925 35.0023 255.736 33.747C254.547 32.4916 252.645 31.864 250.03 31.864C248.722 31.864 246.999 31.8939 244.859 31.9536C242.719 32.0134 240.52 32.1031 238.261 32.2226C236.002 32.3422 233.952 32.4618 232.109 32.5813V20.4764C233.476 20.3569 235.081 20.2373 236.924 20.1178C238.766 19.9982 240.668 19.9086 242.63 19.8488C244.591 19.789 246.434 19.7591 248.158 19.7591C253.151 19.7591 257.341 20.4764 260.729 21.9111C264.177 23.3457 266.792 25.5276 268.575 28.4567C270.358 31.326 271.25 35.0322 271.25 39.5752V69.7029H259.927ZM244.324 70.9582C240.817 70.9582 237.726 70.3306 235.051 69.0752C232.436 67.8199 230.385 66.0266 228.899 63.6953C227.413 61.3042 226.67 58.4648 226.67 55.1771C226.67 51.5904 227.592 48.6613 229.434 46.3898C231.277 44.0585 233.863 42.3549 237.191 41.2789C240.52 40.1431 244.354 39.5752 248.693 39.5752H259.124V47.5555H248.604C246.107 47.5555 244.175 48.1831 242.808 49.4385C241.501 50.634 240.847 52.2779 240.847 54.3701C240.847 56.3427 241.501 57.9567 242.808 59.212C244.175 60.4076 246.107 61.0053 248.604 61.0053C250.208 61.0053 251.635 60.7363 252.883 60.1983C254.191 59.6006 255.261 58.6142 256.093 57.2394C256.925 55.8645 257.401 53.9516 257.519 51.5008L260.908 55.0874C260.61 58.4947 259.778 61.364 258.411 63.6953C257.103 66.0266 255.261 67.8199 252.883 69.0752C250.565 70.3306 247.712 70.9582 244.324 70.9582Z" fill="#FC7048"/>
</svg>
